<svg xmlns="http://www.w3.org/2000/svg" viewBox="0 0 2000 2000"><defs><style>.cls-1{isolation:isolate;}.cls-2{fill:#fff;}.cls-3{fill:#daeef7;mix-blend-mode:multiply;opacity:0.3;}.cls-4{fill:#feb546;}.cls-5{fill:#ffc0bb;}.cls-6{fill:#f99893;}.cls-7{fill:#07085b;}.cls-8{fill:#333;}.cls-9{fill:#02ccc0;}.cls-10{fill:#ff5b7e;}.cls-11{fill:#040744;}</style></defs><g class="cls-1"><g id="Layer_1" data-name="Layer 1"><rect class="cls-2" width="2000" height="2000"/><path class="cls-3" d="M946.9,992.15H541.23A23.83,23.83,0,0,0,517.4,1016v169a23.83,23.83,0,0,0,23.83,23.83h42.13c-2.45,18.61-5.65,45.3-3.89,45.3s22.31-28.08,34.67-45.3H946.9A23.83,23.83,0,0,0,970.74,1185V1016A23.83,23.83,0,0,0,946.9,992.15Z"/><path class="cls-4" d="M966.3,947.22H560.62a23.83,23.83,0,0,0-23.83,23.84v169a23.83,23.83,0,0,0,23.83,23.84h42.13c-2.44,18.6-5.65,45.29-3.89,45.29s22.31-28.08,34.67-45.29H966.3a23.83,23.83,0,0,0,23.83-23.84v-169A23.83,23.83,0,0,0,966.3,947.22Z"/><circle class="cls-2" cx="615.33" cy="1056.16" r="59.75" transform="translate(-566.59 744.45) rotate(-45)"/><rect class="cls-5" x="607.24" y="1086.27" width="17.54" height="17.52"/><path class="cls-6" d="M624.79,1096.77v-10.5H607.24v8.93C611,1097.23,616.61,1098.4,624.79,1096.77Z"/><path class="cls-5" d="M652.45,1054.92a6.54,6.54,0,0,0-5.88.23,31.24,31.24,0,0,0-62.48,0,6.52,6.52,0,0,0-5.87-.23c-3.52,1.73-4.61,6.68-2.44,11.07s6.77,6.53,10.28,4.8a5.74,5.74,0,0,0,1.31-.9c2,14.29,14,25,28,24.8,14,.2,25.95-10.51,28-24.8a5.81,5.81,0,0,0,1.32.9c3.51,1.73,8.11-.42,10.28-4.8S656,1056.65,652.45,1054.92Z"/><path class="cls-7" d="M594,1017.09s8.8-7.45,28.82-6.24,23.82,11.64,25,26.56l-1.17,17.74s-5.19-5.34-12-20.15c0,0-11.21,12.57-16.09,11.08s1.85-10.54,1.85-10.54-22.83,19.64-36.28,19.61c0,0-7.11-23,2.88-31.42,0,0-7.53.36-7.92-1.12s3.58-3.7,10.82-2.86c0,0-5.16-10.08-2.28-11.13S594,1017.09,594,1017.09Z"/><path class="cls-2" d="M626.81,1075.33c-.77,3.47-4.74,6.19-9.6,6.34s-9-2.33-10-5.74Z"/><rect class="cls-2" x="695.64" y="995.93" width="237.8" height="10.38" rx="2.35"/><rect class="cls-2" x="695.64" y="1023.33" width="56.16" height="10.38" rx="2.35"/><rect class="cls-2" x="773" y="1023.33" width="160.45" height="10.38" rx="2.35"/><rect class="cls-2" x="695.64" y="1050.72" width="122.85" height="10.38" rx="2.35"/><rect class="cls-2" x="836.46" y="1050.72" width="96.98" height="10.38" rx="2.35"/><rect class="cls-2" x="695.64" y="1078.12" width="237.8" height="10.38" rx="2.35"/><path class="cls-7" d="M1164,733.17l14.78,92.71L1210,702.28s-43.76-21.24-45.7-13.51S1164,733.17,1164,733.17Z"/><polygon class="cls-5" points="1412.41 932.69 1425.92 1092.95 1284.51 1086.19 1300.81 944.28 1412.41 932.69"/><path class="cls-6" d="M1293.05,1011.77l7.76-67.49,111.6-11.59,4.68,55.5C1394.9,1010.3,1355,1033.22,1293.05,1011.77Z"/><path class="cls-6" d="M1206.34,824.71c8.51,17.59,4,37.36-10.07,44.16s-32.37-1.93-40.87-19.52-4-37.36,10.07-44.16S1197.84,807.13,1206.34,824.71Z"/><path class="cls-5" d="M1205.32,906c-10.12-22.67-16-47-19.5-68.42-.74-4.59-1.74-9.12-2.83-13.64a151.28,151.28,0,0,1-2.52-58.17c9.83-65.57,62.59-117.85,128.27-126.93a151.12,151.12,0,0,1,171.94,140c9.1-5.84,19.62-7.72,29.21-4.15,18.4,6.86,26.37,31.07,17.8,54.08s-30.45,36.09-48.85,29.23a29.29,29.29,0,0,1-7-3.84c-2.84,74.31-59.73,135.14-132.36,138.54-35.52,1.66-68.57-10.72-94.22-32.41C1228.8,948.29,1213.29,924.78,1205.32,906Z"/><path class="cls-6" d="M1296,789.14c-.29,8.66-.36,17.11-.81,25.39-.51,7.65-1.35,18.66-6.12,24.49-.7,1-4.45,5.05-4.54,11.2a17.86,17.86,0,0,0,6.6,14c7.72,6.5,17.72,7.11,26,5.07-8.45-1.49-16.54-4.4-21.26-9.91-2.18-2.74-3.63-5.81-3.12-8.68.37-3.3,2.21-5,2.87-6,2.35-3.11,5.18-6.35,6.38-16.93a70.51,70.51,0,0,0,0-13.32A90.6,90.6,0,0,0,1296,789.14Z"/><path class="cls-8" d="M1346.1,800.58a13.19,13.19,0,1,0,12.56-13.79A13.19,13.19,0,0,0,1346.1,800.58Z"/><path class="cls-8" d="M1233.3,813.3a13.19,13.19,0,1,0,12.56-13.79A13.19,13.19,0,0,0,1233.3,813.3Z"/><path class="cls-6" d="M1368.23,889.89c-13.43,11.7-30.9,20.84-48.24,22.94-18.76,2.37-35.33-3.35-51.3-13.18,14.87,12.49,32.09,18.82,51.72,16.62C1339.53,913.78,1357.4,902.77,1368.23,889.89Z"/><path class="cls-7" d="M1329.55,770.8c18.58-5.75,29.11-6.07,37.6-5,18.54,2.49,29,10.69,35.44,13.53-7.8-14.37-19.78-22-34.27-23.84C1352.63,753.56,1337.28,760.65,1329.55,770.8Z"/><path class="cls-7" d="M1271.44,777.34c-9.53-8.42-26-12.44-41-7.53-13.81,4.57-24.11,14.39-29,30,5.82-4.05,14.43-14.1,32.14-20.14C1241.68,777.05,1252.05,775.31,1271.44,777.34Z"/><path class="cls-9" d="M1268.71,1029s-133.09,16.9-166.89,44.37-196.46,430.94-196.46,430.94l135.2,158.44,287.3,2.11s215.47,116.19,350.67,6.34,65.49-492.21-12.68-574.6-217.58-80.27-217.58-80.27S1321.52,1105.09,1268.71,1029Z"/><path class="cls-2" d="M1526.43,1229.73c-4.76,22-7.67,44.31-9.75,66.7-1.14,11.2-1.64,22.44-2.28,33.68-.34,11.25-.6,22.51-.45,33.78.44,22.53,1.68,45.13,5.55,67.43s9.28,44.51,19.61,64.58c-6.95-21.41-10.4-43.42-12.89-65.49s-3.3-44.37-3.59-66.63c-.46-22.28.09-44.59.79-66.93S1525.24,1252.17,1526.43,1229.73Z"/><path class="cls-2" d="M1128.23,1214.94c-6.08,32.73-12.52,65.33-19.07,97.88s-13.59,65-21.46,97.18-16.43,64.22-26.9,95.59a464.73,464.73,0,0,1-18,46.18c-6.76,15-14.78,29.62-25.53,42.36,12.23-11.41,21.22-25.88,29.35-40.46a382,382,0,0,0,20.52-45.79c6-15.61,11.1-31.53,16-47.5q7-24,13-48.33c3.82-16.24,7.48-32.5,10.77-48.84s6.29-32.72,8.91-49.17C1121.25,1281.18,1125.47,1248.13,1128.23,1214.94Z"/><path class="cls-5" d="M1061.35,1571.47c.85-6.68,51.62-14.15,70.28-15.12,14.14-.73,107.87-3.86,139.75-5.3l-2.34,8.2.49,36.2,5.23,24c-28,1.76-96.35,4.44-110.59,7.26-19,3.76-52,18.1-52,18.1s-13.72-3.12,3.72-10.64a83.74,83.74,0,0,0,28-20.05c2.39-2.68-.2-7.44-1.94-7-47.47,12.44-52.36,14.5-52.36,14.5s-55.79-.31-.31-12.85c33.25-7.52,45.17-11.89,48.13-15.62,1.26-1.59-1-7-3-7.12-28.82-1.78-80.53,8.43-66.36,1.74,11.55-5.47,47.93-11.45,62.07-13.71.87-.14,2.28-5.41-1.59-5.73C1101.05,1566.05,1060.56,1577.69,1061.35,1571.47Z"/><path class="cls-2" d="M1524,1498.92c-11.65,2.77-23.47,4.8-35.17,7.26-23.55,4.3-47.17,8-70.87,11.36-23.72,3.12-47.47,6-71.29,8.28s-47.85,4.38-71.33,5.69l-3.16.17-.69,2.74a192.9,192.9,0,0,0-4.34,23.69,189.39,189.39,0,0,0-1.4,23.93,154,154,0,0,0,2.08,24,110.66,110.66,0,0,0,7,23.11l.27.64.52.34,26.09,17.51q13,8.76,26.23,17.31-12.27-9.83-24.74-19.39l-24.27-18.73a105.51,105.51,0,0,1-5.28-21.69,153.31,153.31,0,0,1-1.12-23,219.08,219.08,0,0,1,2.09-23,197,197,0,0,1,3.9-19.69c11.26-.37,22-1.1,33.11-1.91,12-.88,24-1.83,36-3.09,23.92-2.48,47.8-5.46,71.56-9.26s47.39-8.47,70.81-14c11.66-3,23.34-5.85,34.82-9.48,11.58-3.25,22.92-7.3,34.22-11.32C1547.23,1493.2,1535.71,1496.46,1524,1498.92Z"/><path class="cls-7" d="M504.28,1302.61H957.06a34.24,34.24,0,0,1,31.67,21.25l138.64,338.4H1377.7a12.68,12.68,0,0,1,12.67,12.68h0a12.67,12.67,0,0,1-12.67,12.67H655a33.87,33.87,0,0,1-30.91-20L478.33,1342.7A28.45,28.45,0,0,1,504.28,1302.61Z"/><path class="cls-7" d="M1161.15,645.47s-44.37,1.43,2.19-36.09,171.57-81.51,251.7-39.2c0,0,16-34.06,39.18-25.93s-15.06,31.57-15.06,31.57,29.58-1,38.6,13.56c6.68,10.72-11.44,11.19-21.34,10.71,16.84,2.86,81.39,43.63,49,173.79-11.51-2.53-77.13-97.69-77.13-97.69s-150.07,83.37-135.23,17.08c0,0-155.46,97-133.41,16.88C1159.64,710.15,1099.53,714.55,1161.15,645.47Z"/><path class="cls-7" d="M1505.54,774.66s-12.43-4.37-25.79,6.24-11.89,47.87-11.89,47.87-63.79,41.14-57.06-132.92C1418,510.67,1464,710.7,1464,710.7Z"/><path class="cls-3" d="M654.23,608.46H189.6a29.06,29.06,0,0,0-29.06,29.06V829.26a29.06,29.06,0,0,0,29.06,29.06H555.4C570.21,879,597.05,916,599.42,916s-2.06-34.94-5.07-57.65h59.88a29.06,29.06,0,0,0,29.06-29.06V637.52A29.06,29.06,0,0,0,654.23,608.46Z"/><path class="cls-10" d="M635,558.72H170.42a29.06,29.06,0,0,0-29.06,29.06V779.52a29.06,29.06,0,0,0,29.06,29.06h365.8c14.8,20.66,41.64,57.66,44,57.66s-2.05-34.94-5.06-57.66H635a29.06,29.06,0,0,0,29.06-29.06V587.78A29.06,29.06,0,0,0,635,558.72Z"/><circle class="cls-2" cx="241.08" cy="683.65" r="72.85" transform="translate(-245.27 146.1) rotate(-22.71)"/><path class="cls-11" d="M203.16,685.57s-7.23-29.64,10-40.75,35.59-13.64,48.14-7.24c17.41,8.86,24.56,32.82,19,46.07l-46.2-11.6Z"/><rect class="cls-5" x="231.21" y="720.36" width="21.39" height="21.36"/><path class="cls-6" d="M252.6,733.17V720.36H231.21v10.89C235.82,733.73,242.64,735.15,252.6,733.17Z"/><path class="cls-5" d="M286.33,682.13a8,8,0,0,0-7.17.29,36.7,36.7,0,0,0-38.08-38,36.71,36.71,0,0,0-38.09,38,8,8,0,0,0-7.17-.29c-4.28,2.11-5.61,8.16-3,13.5s8.25,8,12.53,5.86a7.27,7.27,0,0,0,1.61-1.1c2.45,17.42,17,30.48,34.09,30.24,17.08.24,31.63-12.82,34.09-30.24a7.45,7.45,0,0,0,1.6,1.1c4.28,2.11,9.89-.52,12.54-5.86S290.61,684.24,286.33,682.13Z"/><path class="cls-2" d="M255.07,707c-.94,4.22-5.77,7.54-11.7,7.72s-11-2.83-12.16-7Z"/><path class="cls-11" d="M203,682.42s28-8.48,40.25-22.64c0,0-3.47,17.06-6.06,19.78.82.54,28-12.65,31.65-24.83s-27.75-16.56-27.75-16.56-10.78,4.59-11.32,4.86-10.65,1.45-11.81,4c-1.51,3.35-8.64,3.65-8.64,3.65l-4.51,9.37-3.15,9.86Z"/><path class="cls-11" d="M180.06,643.85c6.18,2.49,13.32,3.64,20.72,1.37,16.34-5,22.81-3.07,25-1.84a5.34,5.34,0,0,0,4.28.56c1.61-.54,3.11-2,2.64-5.68,0,0,.65-15.52-12.66-24.37A73.06,73.06,0,0,0,180.06,643.85Z"/><path class="cls-4" d="M215.21,642.83h0a1.38,1.38,0,0,1,.34-2c2.73-1.8,9.75-5.84,18.18-6.27a1.39,1.39,0,0,1,1.45,1.39h0a1.38,1.38,0,0,1-1.31,1.38c-7.71.4-14.31,4.2-16.8,5.82A1.37,1.37,0,0,1,215.21,642.83Z"/><rect class="cls-2" x="328.13" y="620.89" width="97.59" height="12.66" rx="2.87"/><rect class="cls-2" x="328.13" y="654.3" width="65.92" height="12.66" rx="2.87"/><rect class="cls-2" x="405.42" y="654.3" width="81.12" height="12.66" rx="2.87"/><rect class="cls-2" x="441.9" y="620.89" width="165.37" height="12.66" rx="2.87"/><rect class="cls-2" x="328.13" y="719.77" width="279.14" height="12.66" rx="2.87"/><rect class="cls-2" x="328.13" y="687.7" width="144.2" height="12.66" rx="2.87"/><rect class="cls-2" x="493.43" y="687.7" width="113.84" height="12.66" rx="2.87"/><ellipse class="cls-2" cx="757.07" cy="1495.9" rx="28.61" ry="39.14" transform="translate(-292.38 188.41) rotate(-11.91)"/></g></g></svg>