<svg viewBox="0 0 160 160" width="160" height="160" fill="none" xmlns="http://www.w3.org/2000/svg" xmlns:xlink="http://www.w3.org/1999/xlink">
  
  
  <g>
    <path fill-rule="evenodd" clip-rule="evenodd" d="M108.981 97.2785C108.981 97.2785 108.981 97.2109 108.981 97.2785C112.076 92.0098 113.591 86.2008 113.591 79.7162C113.591 73.2317 111.945 67.22 108.717 61.6136C103.909 66.9498 96.532 72.0158 86.5858 76.7442C93.0407 66.3419 101.867 57.6958 112.998 50.806C119.849 58.9792 123.274 68.6385 123.274 79.7162C123.274 90.8615 119.849 100.453 112.933 108.626C101.472 101.939 92.7114 93.2932 86.5858 82.6208C95.544 87.1464 102.987 92.0774 108.915 97.4811C108.915 97.4136 108.915 97.346 108.981 97.2785Z" fill="#009900"/>
    <path fill-rule="evenodd" clip-rule="evenodd" d="M62.8078 109.842C62.8078 109.842 62.8737 109.842 62.8078 109.842C67.9454 113.017 73.61 114.571 79.9332 114.571C86.2564 114.571 91.921 113.017 96.993 109.91C92.1845 104.776 87.442 97.0759 82.8314 86.8762C86.6516 92.4826 93.5677 98.4268 103.448 104.776C106.082 106.465 108.981 108.221 112.076 109.91C111.615 110.383 111.154 110.923 110.759 111.396C102.262 120.109 91.9868 124.5 79.9332 124.5C67.8796 124.5 57.6702 120.109 49.1734 111.396C48.5806 110.788 47.9878 110.18 47.4608 109.572C50.6225 108.018 53.5865 106.33 56.3529 104.641C64.9156 99.3725 71.7657 93.3608 76.9692 86.7411C72.6878 95.9951 67.9454 103.628 62.6761 109.775C62.6761 109.775 62.742 109.775 62.8078 109.842Z" fill="#2E2E2E"/>
  </g>


  <g transform=" matrix(0.866, -0.5, 0.25, 0.433, 80, 80)">
    <path d="M 0,70 A 65,70 0 0,0 65,0 5,5 0 0,1 75,0 75,70 0 0,1 0,70Z" fill="silver">
      <animateTransform attributeName="transform" type="rotate" from="360 0 0" to="0 0 0" dur="1s" repeatCount="indefinite" />
    </path>

  </g>

  <g>
    <path fill-rule="evenodd" clip-rule="evenodd" d="M50.2273 62.2215C47.1974 67.4226 45.6824 73.2992 45.6824 79.7162C45.6824 86.2008 47.3291 92.2124 50.5566 97.8189C55.3649 92.4826 62.742 87.4166 72.6879 82.6883C66.2329 93.0906 57.4067 101.737 46.2752 108.626C39.4251 100.453 36 90.794 36 79.7162C36 68.5709 39.4251 58.9792 46.3411 50.806C57.8019 57.4932 66.5622 66.1392 72.6879 76.8117C63.73 72.286 56.287 67.3551 50.359 61.9513C50.2931 62.0189 50.2931 62.154 50.2273 62.2215Z" fill="#009900"/>
    <path fill-rule="evenodd" clip-rule="evenodd" d="M96.663 49.5902C91.5917 46.483 85.8612 44.9294 79.6039 44.9294C73.2807 44.9294 67.6161 46.483 62.5444 49.5902C67.3526 54.7238 72.0951 62.4241 76.7057 72.6238C72.8855 67.0174 65.9694 61.0732 56.0894 54.7238C53.4547 53.0351 50.5566 51.2789 47.4608 49.5902C47.9219 49.1174 48.383 48.577 48.7782 48.1042C57.275 39.3906 67.5502 35 79.6039 35C91.6575 35 101.867 39.3906 110.364 48.1042C110.957 48.7121 111.549 49.32 112.076 49.9279C108.915 51.4815 105.951 53.1702 103.184 54.8589C94.622 60.1275 87.7714 66.1392 82.5679 72.7589C86.8492 63.5049 91.5917 55.8721 96.861 49.7253C96.861 49.7253 96.795 49.6577 96.663 49.5902C96.663 49.5902 96.663 49.6577 96.663 49.5902Z" fill="#2E2E2E"/>
  </g>


</svg>