<svg width="226" height="187" viewBox="0 0 226 187" fill="none" xmlns="http://www.w3.org/2000/svg">
<path fill-rule="evenodd" clip-rule="evenodd" d="M72.8 74.8C68.2 82.5 65.9 91.2 65.9 100.7C65.9 110.3 68.4 119.2 73.3 127.5C80.6 119.6 91.8 112.1 106.9 105.1C97.1 120.5 83.7 133.3 66.8 143.5C56.4 131.4 51.2 117.1 51.2 100.7C51.2 84.2 56.4 70 66.9 57.9C84.3 67.8 97.6 80.6 106.9 96.4C93.3 89.7 82 82.4 73 74.4C72.9 74.5 72.9 74.7 72.8 74.8Z" fill="#009900"/>
<path fill-rule="evenodd" clip-rule="evenodd" d="M162 126.7C166.7 118.9 169 110.3 169 100.7C169 91.1 166.5 82.2 161.6 73.9C154.3 81.8 143.1 89.3 128 96.3C137.8 80.9 151.2 68.1 168.1 57.9C178.5 70 183.7 84.3 183.7 100.7C183.7 117.2 178.5 131.4 168 143.5C150.6 133.6 137.3 120.8 128 105C141.6 111.7 152.9 119 161.9 127C161.9 126.9 161.9 126.8 162 126.7Z" fill="#009900"/>
<path fill-rule="evenodd" clip-rule="evenodd" d="M91.9 145.3C99.7 150 108.3 152.3 117.9 152.3C127.5 152.3 136.1 150 143.8 145.4C136.5 137.8 129.3 126.4 122.3 111.3C128.1 119.6 138.6 128.4 153.6 137.8C157.6 140.3 162 142.9 166.7 145.4C166 146.1 165.3 146.9 164.7 147.6C151.8 160.5 136.2 167 117.9 167C99.6 167 84.1 160.5 71.2 147.6C70.3 146.7 69.4 145.8 68.6 144.9C73.4 142.6 77.9 140.1 82.1 137.6C95.1 129.8 105.5 120.9 113.4 111.1C106.9 124.8 99.7 136.1 91.7 145.2C91.7 145.2 91.8 145.2 91.9 145.3Z" fill="#2E2E2E"/>
<path fill-rule="evenodd" clip-rule="evenodd" d="M143.3 56.1C135.6 51.5 126.9 49.2 117.4 49.2C107.8 49.2 99.2 51.5 91.5 56.1C98.8 63.7 106 75.1 113 90.2C107.2 81.9 96.7 73.1 81.7 63.7C77.7 61.2 73.3 58.6 68.6 56.1C69.3 55.4 70 54.6 70.6 53.9C83.5 41 99.1 34.5 117.4 34.5C135.7 34.5 151.2 41 164.1 53.9C165 54.8 165.9 55.7 166.7 56.6C161.9 58.9 157.4 61.4 153.2 63.9C140.2 71.7 129.8 80.6 121.9 90.4C128.4 76.7 135.6 65.4 143.6 56.3C143.6 56.3 143.5 56.2 143.3 56.1Z" fill="#2E2E2E"/>
<path fill-rule="evenodd" clip-rule="evenodd" d="M173 27.5C164.3 30.5 155.5 34.4 146.5 39.1C150.9 37.1 155.4 35.4 159.7 33.9C181.2 26.6 195.7 26.8 203.4 34.5C211.1 42.2 209.7 55.1 199.2 73.3C194.9 80.7 189.6 88 183.4 95.4C178.7 100.9 173.5 106.3 167.7 111.8C164 115.3 160.1 118.7 156 122.2C153.9 124 151.7 125.7 149.5 127.5C148.9 128 148.2 128.5 147.6 129C146.4 129.9 145.3 130.8 144.1 131.7C141.6 133.6 139.1 135.5 136.6 137.2C128.7 142.8 121 147.7 113.3 152C106.2 155.9 99.2 159.3 92.2 162.1C89.3 163.3 86.4 164.3 83.5 165.3C62.1 172.6 47.5 172.4 39.8 164.7C32.1 157 33.5 144.1 44.1 125.9C44.6 125.1 45.8 123.3 47.8 120.4C42.2 126.4 37.6 132.3 34.1 138.2C26.8 150.4 23.2 160.4 23.3 168.2C23.3 173.8 25.4 178.2 29.4 181.5C33.5 184.8 39.1 186.5 46.2 186.5C47.4 186.5 48.7 186.4 50 186.3C58.4 185.7 68.6 183 80.7 178.3C89.3 175 98 170.9 106.7 166.2C115.4 161.5 124.2 156.1 133.1 149.9C136 147.9 138.8 145.9 141.7 143.8C144.8 141.5 148 139.1 151.2 136.6C152.1 135.9 153 135.2 153.9 134.4C154.5 133.9 155.2 133.4 155.8 132.9C165.9 124.8 175 116.6 183 108.6C195.4 96.2 205.4 83.9 213 71.7C220.4 59.9 224.4 50.1 225.1 42.3C225.1 41.6 225.2 41 225.2 40.3C225.3 35.3 223.9 31.2 221.1 28C217.2 23.5 211 21.2 202.8 21.2C194.9 21.2 185 23.3 173 27.5Z" fill="url(#paint0_linear_106_4)"/>
<path fill-rule="evenodd" clip-rule="evenodd" d="M203.9 0C205.6 0 207 0.6 208.3 1.8C209.5 3 210.1 4.5 210.1 6.2C210.1 7.9 209.5 9.4 208.3 10.6C207.1 11.8 205.6 12.4 203.9 12.4C202.2 12.4 200.7 11.8 199.5 10.6C198.3 9.4 197.7 8 197.7 6.2C197.7 4.5 198.3 3.1 199.5 1.8C200.8 0.6 202.2 0 203.9 0Z" fill="#777373"/>
<path fill-rule="evenodd" clip-rule="evenodd" d="M14.1 173.1C14.1 175 13.5 176.5 12.2 177.8C10.9 179.1 9.30002 179.7 7.50002 179.7C5.70002 179.7 4.10003 179.1 2.80003 177.8C1.50003 176.5 0.900024 174.9 0.900024 173.1C0.900024 171.3 1.50003 169.7 2.80003 168.4C4.10003 167.1 5.70002 166.4 7.50002 166.4C9.30002 166.4 10.9 167.1 12.2 168.4C13.5 169.7 14.1 171.3 14.1 173.1Z" fill="#777373"/>
<defs>
<linearGradient id="paint0_linear_106_4" x1="189.754" y1="48.8297" x2="62.0572" y2="162.369" gradientUnits="userSpaceOnUse">
<stop stop-color="#EFE7E5"/>
<stop offset="1" stop-color="#272627"/>
</linearGradient>
</defs>
</svg>
